<?xml version="1.0" encoding="UTF-8" standalone="no"?>
<svg
   xmlns:dc="http://purl.org/dc/elements/1.1/"
   xmlns:cc="http://creativecommons.org/ns#"
   xmlns:rdf="http://www.w3.org/1999/02/22-rdf-syntax-ns#"
   xmlns:svg="http://www.w3.org/2000/svg"
   xmlns="http://www.w3.org/2000/svg"
   viewBox="0 0 181.46667 46.666668"
   height="46.666668"
   width="181.46667"
   xml:space="preserve"
   id="svg2"
   version="1.1"><metadata
     id="metadata8"><rdf:RDF><cc:Work
         rdf:about=""><dc:format>image/svg+xml</dc:format><dc:type
           rdf:resource="http://purl.org/dc/dcmitype/StillImage" /></cc:Work></rdf:RDF></metadata><defs
     id="defs6"><clipPath
       id="clipPath26"
       clipPathUnits="userSpaceOnUse"><path
         id="path24"
         d="M 0,35 H 136.1 V 0 H 0 Z" /></clipPath></defs><g
     transform="matrix(1.3333333,0,0,-1.3333333,0,46.666667)"
     id="g10"><path
       id="path12"
       style="fill:#3c9ad5;fill-opacity:1;fill-rule:nonzero;stroke:none"
       d="M 35,0 H 136.1 V 35 H 35 Z" /><path
       id="path14"
       style="fill:#3bc4f3;fill-opacity:1;fill-rule:nonzero;stroke:none"
       d="M 0,0 H 35 V 35 H 0 Z" /><text
       id="text18"
       style="font-variant:normal;font-weight:normal;font-stretch:normal;font-size:13.86349964px;font-family:'Century Gothic';-inkscape-font-specification:CenturyGothic;writing-mode:lr-tb;fill:#ffffff;fill-opacity:1;fill-rule:nonzero;stroke:none"
       transform="matrix(1,0,0,-1,41.3003,12.9404)"><tspan
         id="tspan16"
         y="0"
         x="0 10.314444 18.743452 27.200188 36.530323 48.619293 52.79221 62.260979 75.264938 84.276215">DungGramer</tspan></text>
<g
       id="g20"><g
         clip-path="url(#clipPath26)"
         id="g22"><g
           transform="translate(25.2251,10.1113)"
           id="g28"><path
             id="path30"
             style="fill:#ffffff;fill-opacity:1;fill-rule:nonzero;stroke:none"
             d="m 0,0 h -3.229 v 4.903 c 0,1.169 -0.022,2.674 -1.679,2.674 -1.681,0 -1.94,-1.274 -1.94,-2.589 V 0 h -3.228 v 10.083 h 3.099 V 8.705 h 0.044 c 0.431,0.793 1.485,1.628 3.057,1.628 C -0.604,10.333 0,8.245 0,5.53 Z m -13.77,11.419 c -0.929,0 -1.68,0.753 -1.68,1.68 0,0.927 0.752,1.679 1.68,1.679 0.926,0 1.679,-0.753 1.679,-1.679 0,-0.927 -0.753,-1.68 -1.679,-1.68 M -12.091,0 h -3.359 v 10.076 h 3.359 z" /></g></g></g></g></svg>