<?xml version="1.0" encoding="UTF-8" standalone="no"?>
<svg
   xmlns:dc="http://purl.org/dc/elements/1.1/"
   xmlns:cc="http://creativecommons.org/ns#"
   xmlns:rdf="http://www.w3.org/1999/02/22-rdf-syntax-ns#"
   xmlns:svg="http://www.w3.org/2000/svg"
   xmlns="http://www.w3.org/2000/svg"
   viewBox="0 0 102.66667 26.666668"
   height="26.666668"
   width="102.66667"
   xml:space="preserve"
   id="svg2"
   version="1.1"><metadata
     id="metadata8"><rdf:RDF><cc:Work
         rdf:about=""><dc:format>image/svg+xml</dc:format><dc:type
           rdf:resource="http://purl.org/dc/dcmitype/StillImage" /></cc:Work></rdf:RDF></metadata><defs
     id="defs6"><clipPath
       id="clipPath26"
       clipPathUnits="userSpaceOnUse"><path
         id="path24"
         d="M 0,20 H 77 V 0 H 0 Z" /></clipPath></defs><g
     transform="matrix(1.3333333,0,0,-1.3333333,0,26.666667)"
     id="g10"><path
       id="path12"
       style="fill:#2d88ff;fill-opacity:1;fill-rule:nonzero;stroke:none"
       d="M 19.802,0 H 77 V 20 H 19.802 Z" /><path
       id="path14"
       style="fill:#eaebef;fill-opacity:1;fill-rule:nonzero;stroke:none"
       d="M 0,0 H 19.802 V 20 H 0 Z" /><text
       id="text18"
       style="font-variant:normal;font-weight:normal;font-stretch:normal;font-size:6.28569984px;font-family:'Century Gothic';-inkscape-font-specification:CenturyGothic;writing-mode:lr-tb;fill:#ffffff;fill-opacity:1;fill-rule:nonzero;stroke:none"
       transform="matrix(0.99008861,0,0,-1,21.6689,7.7998)"><tspan
         id="tspan16"
         y="0"
         x="0 4.6765609 8.4982662 12.332543 16.56282 18.303959 22.609663 26.695368 30.177647 31.918785 36.149059 38.041058 42.33419 48.230175 52.31588">Dung.dev.gramer</tspan></text>
<g
       id="g20"><g
         clip-path="url(#clipPath26)"
         id="g22"><g
           transform="translate(12.324,11.189)"
           id="g28"><path
             id="path30"
             style="fill:#2d88ff;fill-opacity:1;fill-rule:nonzero;stroke:none"
             d="m 0,0 h -1.623 v 0.93 c 0,0.48 0.039,0.782 0.72,0.782 h 0.86 v 1.479 c -0.419,0.044 -0.84,0.065 -1.261,0.064 -1.249,0 -2.161,-0.77 -2.161,-2.185 V 0 h -1.381 v -1.861 l 1.381,10e-4 v -4.186 h 1.842 v 4.187 h 1.412 z" /></g></g></g></g></svg>