<?xml version="1.0" encoding="UTF-8" standalone="no"?>
<svg
   xmlns:dc="http://purl.org/dc/elements/1.1/"
   xmlns:cc="http://creativecommons.org/ns#"
   xmlns:rdf="http://www.w3.org/1999/02/22-rdf-syntax-ns#"
   xmlns:svg="http://www.w3.org/2000/svg"
   xmlns="http://www.w3.org/2000/svg"
   viewBox="0 0 241.33333 62.666668"
   height="62.666668"
   width="241.33333"
   xml:space="preserve"
   id="svg2"
   version="1.1"><metadata
     id="metadata8"><rdf:RDF><cc:Work
         rdf:about=""><dc:format>image/svg+xml</dc:format><dc:type
           rdf:resource="http://purl.org/dc/dcmitype/StillImage" /></cc:Work></rdf:RDF></metadata><defs
     id="defs6"><clipPath
       id="clipPath26"
       clipPathUnits="userSpaceOnUse"><path
         id="path24"
         d="M 0,47 H 181 V 0 H 0 Z" /></clipPath></defs><g
     transform="matrix(1.3333333,0,0,-1.3333333,0,62.666667)"
     id="g10"><path
       id="path12"
       style="fill:#2d88ff;fill-opacity:1;fill-rule:nonzero;stroke:none"
       d="M 46.547,0 H 181 V 47 H 46.547 Z" /><path
       id="path14"
       style="fill:#eaebef;fill-opacity:1;fill-rule:nonzero;stroke:none"
       d="M 0,0 H 46.547 V 47 H 0 Z" /><text
       id="text18"
       style="font-variant:normal;font-weight:normal;font-stretch:normal;font-size:14.77140045px;font-family:'Century Gothic';-inkscape-font-specification:CenturyGothic;writing-mode:lr-tb;fill:#ffffff;fill-opacity:1;fill-rule:nonzero;stroke:none"
       transform="matrix(0.99035298,0,0,-1,50.9355,18.3281)"><tspan
         id="tspan16"
         y="0"
         x="0 10.989922 19.970932 28.981487 38.922638 43.014317 53.132725 62.734135 70.917488 75.009171 84.950325 89.396515 99.485382 113.34095 122.94236">Dung.dev.gramer</tspan></text>
<g
       id="g20"><g
         clip-path="url(#clipPath26)"
         id="g22"><g
           transform="translate(28.9695,26.2939)"
           id="g28"><path
             id="path30"
             style="fill:#2d88ff;fill-opacity:1;fill-rule:nonzero;stroke:none"
             d="m 0,0 h -3.815 v 2.186 c 0,1.128 0.09,1.838 1.691,1.838 h 2.022 V 7.5 c -0.984,0.103 -1.973,0.153 -2.963,0.151 -2.937,0 -5.08,-1.811 -5.08,-5.136 V 0 h -3.248 v -4.372 l 3.248,10e-4 v -9.837 h 4.33 v 9.84 l 3.318,0.001 z" /></g></g></g></g></svg>