<svg xmlns="http://www.w3.org/2000/svg" width="586" height="130"><defs><style>.cls-1,.cls-2{fill:#8f5c2a;stroke-width:0}.cls-2{fill:none}</style></defs><g id="Layer_1" data-name="Layer 1"><path d="M70 15c-27.61 0-50 22.39-50 50s22.39 50 50 50 50-22.39 50-50-22.39-50-50-50Zm0 92.16c-23.29 0-42.16-18.88-42.16-42.16S46.72 22.84 70 22.84 112.16 41.72 112.16 65 93.28 107.16 70 107.16Z" style="fill:#8f5c2a;stroke-width:0"/><path class="cls-1" d="M98.1 54.52c-1.45-4.41-3.92-8.4-7.23-11.63-5-4.87-11.48-7.55-18.26-7.55H54.5v59.32h18.11c6.78 0 13.26-2.68 18.26-7.54a28.86 28.86 0 0 0 7.21-11.55c.72-2.15 1.19-4.4 1.4-6.71v-.21H77.05v6.93h13.44c-3.26 7.13-10.07 11.94-17.87 11.94H61.59V42.49h11.03c7.83 0 14.67 4.85 17.91 12.03.96 2.13 1.61 4.46 1.87 6.93h7.11v-.18c-.21-2.32-.68-4.58-1.4-6.75Z"/><circle class="cls-2" cx="70" cy="65" r="29.74"/><path class="cls-2" d="M40.26 35.26h59.48v59.48H40.26z" id="Square"/></g><g id="Layer_2" data-name="Layer 2"><path class="cls-1" d="M163.76 46.29c3.78 1.93 6.71 4.69 8.77 8.3 2.06 3.6 3.09 7.81 3.09 12.61s-1.03 8.98-3.09 12.51c-2.06 3.54-4.99 6.25-8.77 8.13-3.79 1.88-8.19 2.82-13.23 2.82h-15.44V43.4h15.44c5.03 0 9.44.96 13.23 2.89Zm-.51 33.56c2.95-2.99 4.42-7.21 4.42-12.65s-1.47-9.77-4.42-12.85-7.19-4.62-12.72-4.62h-7.68v34.61h7.68c5.53 0 9.77-1.5 12.72-4.49ZM216.33 53.19v37.47h-7.75v-4.42c-1.22 1.54-2.82 2.75-4.79 3.64-1.97.88-4.07 1.33-6.29 1.33-2.95 0-5.59-.61-7.92-1.84-2.34-1.22-4.17-3.04-5.51-5.44-1.34-2.4-2.01-5.3-2.01-8.7V53.2h7.68v20.88c0 3.36.84 5.93 2.52 7.72 1.68 1.79 3.97 2.69 6.87 2.69s5.2-.89 6.9-2.69c1.7-1.79 2.55-4.36 2.55-7.72V53.2h7.75ZM251.63 54.42c2.33 1.22 4.16 3.04 5.47 5.44 1.31 2.4 1.97 5.3 1.97 8.7v22.1h-7.68V69.72c0-3.35-.84-5.93-2.52-7.72-1.68-1.79-3.97-2.69-6.87-2.69s-5.2.9-6.9 2.69c-1.7 1.79-2.55 4.36-2.55 7.72v20.94h-7.75V53.19h7.75v4.28c1.27-1.54 2.89-2.74 4.86-3.6 1.97-.86 4.07-1.29 6.29-1.29 2.95 0 5.59.61 7.92 1.84ZM290.33 54.31c2.24 1.16 4 2.6 5.27 4.32v-5.44h7.82v38.08c0 3.44-.73 6.52-2.18 9.21-1.45 2.7-3.55 4.82-6.29 6.36s-6.02 2.31-9.83 2.31c-5.08 0-9.29-1.19-12.65-3.57-3.36-2.38-5.26-5.61-5.71-9.69h7.68c.59 1.95 1.85 3.52 3.77 4.73s4.23 1.8 6.9 1.8c3.13 0 5.65-.95 7.58-2.86 1.93-1.9 2.89-4.67 2.89-8.3V85c-1.32 1.77-3.09 3.25-5.34 4.45-2.24 1.2-4.79 1.8-7.65 1.8-3.26 0-6.25-.83-8.94-2.48-2.7-1.65-4.83-3.97-6.39-6.94-1.56-2.97-2.35-6.33-2.35-10.1s.78-7.09 2.35-10c1.56-2.9 3.69-5.16 6.39-6.77 2.7-1.61 5.68-2.41 8.94-2.41 2.9 0 5.47.58 7.72 1.73ZM294 65.16c-1.07-1.9-2.46-3.35-4.18-4.35-1.72-1-3.58-1.5-5.58-1.5s-3.85.49-5.58 1.46c-1.72.98-3.12 2.4-4.18 4.28-1.07 1.88-1.6 4.11-1.6 6.7s.53 4.85 1.6 6.8c1.06 1.95 2.47 3.43 4.22 4.45 1.74 1.02 3.59 1.53 5.54 1.53s3.85-.5 5.58-1.5c1.72-1 3.12-2.46 4.18-4.39 1.06-1.93 1.6-4.18 1.6-6.77s-.53-4.83-1.6-6.73ZM346.92 57c-1.22-2.36-2.92-4.14-5.1-5.34-2.18-1.2-4.69-1.8-7.55-1.8-3.13 0-5.92.7-8.36 2.11-2.45 1.41-4.36 3.4-5.75 5.98s-2.07 5.58-2.07 8.98.69 6.4 2.07 9.01c1.38 2.61 3.3 4.61 5.75 6.02 2.45 1.41 5.24 2.11 8.36 2.11 4.22 0 7.64-1.18 10.27-3.54 2.63-2.36 4.24-5.55 4.83-9.59h-17.75v-6.19h26.04v6.05c-.5 3.67-1.8 7.05-3.91 10.13-2.11 3.08-4.85 5.54-8.23 7.38-3.38 1.84-7.13 2.75-11.25 2.75-4.44 0-8.5-1.03-12.17-3.09-3.67-2.06-6.59-4.93-8.74-8.6-2.15-3.67-3.23-7.82-3.23-12.44s1.08-8.77 3.23-12.44 5.08-6.54 8.77-8.6c3.69-2.06 7.74-3.09 12.14-3.09 5.03 0 9.51 1.24 13.43 3.71 3.92 2.47 6.77 5.97 8.53 10.51h-9.32ZM376.65 54.18c1.88-1.06 4.11-1.6 6.7-1.6v8.02h-1.97c-3.04 0-5.34.77-6.9 2.31-1.56 1.54-2.35 4.22-2.35 8.02v19.72h-7.75V53.18h7.75v5.44c1.13-1.9 2.64-3.39 4.52-4.45ZM388.1 61.76c1.56-2.9 3.69-5.16 6.39-6.77 2.7-1.61 5.68-2.41 8.94-2.41 2.95 0 5.52.58 7.72 1.73 2.2 1.16 3.95 2.6 5.27 4.32v-5.44h7.82v37.47h-7.82v-5.58c-1.32 1.77-3.11 3.24-5.37 4.42-2.27 1.18-4.85 1.77-7.75 1.77-3.22 0-6.17-.83-8.84-2.48s-4.79-3.97-6.36-6.94c-1.56-2.97-2.35-6.33-2.35-10.1s.78-7.09 2.35-10Zm26.72 3.4c-1.07-1.9-2.46-3.35-4.18-4.35-1.72-1-3.58-1.5-5.58-1.5s-3.85.49-5.58 1.46c-1.72.98-3.12 2.4-4.18 4.28-1.07 1.88-1.6 4.11-1.6 6.7s.53 4.85 1.6 6.8c1.06 1.95 2.47 3.43 4.22 4.45 1.74 1.02 3.59 1.53 5.54 1.53s3.85-.5 5.58-1.5c1.72-1 3.12-2.46 4.18-4.39 1.06-1.93 1.6-4.18 1.6-6.77s-.53-4.83-1.6-6.73ZM486.03 54.42c2.33 1.22 4.17 3.04 5.51 5.44 1.34 2.4 2.01 5.3 2.01 8.7v22.1h-7.68V69.72c0-3.35-.84-5.93-2.52-7.72-1.68-1.79-3.97-2.69-6.87-2.69s-5.2.9-6.9 2.69c-1.7 1.79-2.55 4.36-2.55 7.72v20.94h-7.68V69.72c0-3.35-.84-5.93-2.52-7.72-1.68-1.79-3.97-2.69-6.87-2.69s-5.2.9-6.9 2.69c-1.7 1.79-2.55 4.36-2.55 7.72v20.94h-7.75V53.19h7.75v4.28c1.27-1.54 2.88-2.74 4.83-3.6 1.95-.86 4.03-1.29 6.26-1.29 2.99 0 5.67.64 8.02 1.9 2.36 1.27 4.17 3.11 5.44 5.51 1.13-2.27 2.9-4.07 5.3-5.41a15.66 15.66 0 0 1 7.75-2.01c2.95 0 5.59.61 7.92 1.84ZM536.05 74.82h-28.63c.23 2.99 1.34 5.4 3.33 7.21 1.99 1.81 4.44 2.72 7.34 2.72 4.17 0 7.12-1.74 8.84-5.24h8.36c-1.13 3.45-3.19 6.27-6.15 8.47-2.97 2.2-6.65 3.3-11.05 3.3-3.58 0-6.79-.8-9.62-2.41-2.83-1.61-5.05-3.88-6.66-6.8-1.61-2.92-2.41-6.31-2.41-10.17s.78-7.24 2.35-10.17c1.56-2.92 3.76-5.18 6.6-6.77 2.83-1.59 6.09-2.38 9.76-2.38s6.69.77 9.45 2.31c2.76 1.54 4.92 3.71 6.46 6.49 1.54 2.79 2.31 6 2.31 9.62 0 1.41-.09 2.68-.27 3.81Zm-7.82-6.26c-.04-2.86-1.07-5.15-3.06-6.87-2-1.72-4.47-2.58-7.41-2.58-2.68 0-4.96.85-6.87 2.55s-3.04 4-3.4 6.9h20.74ZM554.86 54.18c1.88-1.06 4.11-1.6 6.7-1.6v8.02h-1.97c-3.04 0-5.34.77-6.9 2.31-1.56 1.54-2.35 4.22-2.35 8.02v19.72h-7.75V53.18h7.75v5.44c1.13-1.9 2.64-3.39 4.52-4.45Z"/></g></svg>