<?xml version="1.0" encoding="UTF-8"?>
<svg id="Layer_2" data-name="Layer 2" xmlns="http://www.w3.org/2000/svg" width="100" height="100" viewBox="0 0 100 100">
  <defs>
    <style>
      .cls-1 {
        fill: #8f5c2a;
      }

      .cls-1, .cls-2, .cls-3 {
        stroke-width: 0px;
      }

      .cls-2 {
        fill: none;
      }

      .cls-3 {
        fill: #8f5c2a;
      }
    </style>
  </defs>
  <g id="Layer_1-2" data-name="Layer 1">
    <g>
      <path class="cls-3" d="M50,0C22.39,0,0,22.39,0,50s22.39,50,50,50,50-22.39,50-50S77.61,0,50,0ZM50,92.16c-23.29,0-42.16-18.88-42.16-42.16S26.71,7.84,50,7.84s42.16,18.88,42.16,42.16-18.88,42.16-42.16,42.16Z"/>
      <path class="cls-1" d="M78.1,39.52c-1.45-4.41-3.92-8.4-7.23-11.63-5-4.87-11.48-7.55-18.26-7.55h-18.11v59.32h18.11c6.78,0,13.26-2.68,18.26-7.54,3.29-3.21,5.75-7.17,7.21-11.55.72-2.15,1.19-4.4,1.4-6.71v-.21h-7.09s0,0,0,0h-15.34v6.93h13.44c-3.26,7.13-10.07,11.94-17.87,11.94h-11.03V27.49h11.03c7.83,0,14.67,4.85,17.91,12.03.96,2.13,1.61,4.46,1.87,6.93h7.11v-.18c-.21-2.32-.68-4.58-1.4-6.75Z"/>
    </g>
    <g id="Ring">
      <circle class="cls-2" cx="50" cy="50" r="50"/>
      <circle class="cls-2" cx="50" cy="50" r="42.16"/>
    </g>
    <g id="Square">
      <rect class="cls-2" x="20.26" y="20.26" width="59.48" height="59.48"/>
    </g>
  </g>
</svg>